<?xml version="1.0" standalone="no"?><!DOCTYPE svg PUBLIC "-//W3C//DTD SVG 1.1//EN" "http://www.w3.org/Graphics/SVG/1.1/DTD/svg11.dtd"><svg t="1600014178724" class="icon" viewBox="0 0 1024 1024" version="1.1" xmlns="http://www.w3.org/2000/svg" p-id="13394" xmlns:xlink="http://www.w3.org/1999/xlink" width="48" height="48"><defs><style type="text/css"></style></defs><path d="M938.49543796 156.89221045H85.50456204c-10.06748889 0-17.38929897-8.23703635-17.38929899-17.38929898s8.23703635-17.38929897 17.38929899-17.38929897h852.07564966c10.06748889 0 17.38929897 8.23703635 17.38929897 17.38929897s-7.3218101 17.38929897-16.47407271 17.38929898zM688.63866851 902.80161376H335.36133149c-10.06748889 0-17.38929897-8.23703635-17.38929897-17.38929898 0-10.06748889 8.23703635-17.38929897 17.38929897-17.38929895h352.36211076c10.06748889 0 17.38929897 8.23703635 17.38929898 17.38929895 0.91522626 9.15226261-7.3218101 17.38929897-16.47407272 17.38929898z" p-id="13395"></path><path d="M873.51437339 652.02961805h-723.02874678c-10.06748889 0-17.38929897-8.23703635-17.38929895-17.38929898V139.50291147c0-10.06748889 8.23703635-17.38929897 17.38929895-17.38929897 10.06748889 0 17.38929897 8.23703635 17.389299 17.38929897v476.83288235h686.41969627V391.19013345c0-10.06748889 8.23703635-17.38929897 17.38929897-17.38929895 10.06748889 0 17.38929897 8.23703635 17.38929897 17.38929895v243.45018562c1.83045253 9.15226261-6.40658382 17.38929897-15.55884643 17.38929898zM873.51437339 311.56544868c-10.06748889 0-17.38929897-8.23703635-17.389299-17.38929897V246.5843841c0-10.06748889 8.23703635-17.38929897 17.389299-17.38929898 10.06748889 0 17.38929897 8.23703635 17.38929895 17.38929898v47.59176561c0 9.15226261-8.23703635 17.38929897-17.38929895 17.38929897zM512 902.80161376c-10.06748889 0-17.38929897-8.23703635-17.38929897-17.38929898v-158.33414329c0-10.06748889 8.23703635-17.38929897 17.38929897-17.38929897 10.06748889 0 17.38929897 8.23703635 17.38929897 17.38929897v158.33414329c0 9.15226261-7.3218101 17.38929897-17.38929897 17.38929898z" p-id="13396"></path><path d="M825.0073815 220.95804877H150.48562661c-10.06748889 0-17.38929897-8.23703635-17.38929895-17.38929898 0-10.06748889 8.23703635-17.38929897 17.38929895-17.38929896h673.60652863c10.06748889 0 17.38929897 8.23703635 17.38929898 17.38929896 0.91522626 10.06748889-7.3218101 17.38929897-16.47407272 17.38929898z" p-id="13397"></path></svg>