<?xml version="1.0" standalone="no"?><!DOCTYPE svg PUBLIC "-//W3C//DTD SVG 1.1//EN" "http://www.w3.org/Graphics/SVG/1.1/DTD/svg11.dtd"><svg t="1625567204748" class="icon" viewBox="0 0 1024 1024" version="1.1" xmlns="http://www.w3.org/2000/svg" p-id="11272" xmlns:xlink="http://www.w3.org/1999/xlink" width="200" height="200"><defs><style type="text/css"></style></defs><path d="M845.7 790.1c45.9-0.5 83.4-15.1 112.7-43.9 29.7-28 44.8-66.4 45.3-115.2 0-21.9-4.6-42.8-13.9-62.7-9.7-20-25.6-37.1-47.4-51.3 21.4-14.5 36.2-31 44.6-49.6 7.1-18.5 10.7-37.8 10.7-57.8-0.5-39.5-14-73.7-40.6-102.7-27.8-29.7-65.4-44.8-112.7-45.3-37.3 0.5-69.4 13.8-96.3 39.9-27.3 26.4-42.9 58.8-46.7 97.3h74.5c4.8-21.4 14-37.2 27.8-47.4 13.1-10.2 27.6-15.3 43.5-15.3 22.1 0.5 40.2 7.5 54.2 21 14 14 21.3 32 21.7 53.8 0 21.6-7 39.2-21 52.8-14 14-33.8 21-59.2 21h-25.7v66h31.4c23.1 0 42.1 7 57 21 15.2 14.5 23.1 34.9 23.5 61.3-0.5 25.9-8.3 45.9-23.5 59.9-15 15-33.4 22.5-55.3 22.5-20.4 0-36.8-5.6-49.2-16.8-12.1-10.7-21.5-24.7-28.2-42.1h-74.5c8.1 43.3 25.8 76.3 53.1 99.1 27.4 23.1 58.8 34.5 94.2 34.5z m-233.2-4.3v-74.5H414l167.2-209.6c20.9-26.6 31.4-57 31.4-91.3-0.5-42.8-14.9-78.1-43.1-105.9-27.8-28-64.1-42.3-108.7-42.8-39.9 0.5-73.6 14.5-100.9 42.1-27.1 28.3-41.6 64.1-43.5 107.3h74.2c2.6-23.8 10.9-42.2 25-55.3 13.5-13.1 30.5-19.6 51-19.6 23.1 0.5 40.9 8 53.5 22.5 12.1 14.5 18.2 31.5 18.2 51 0 7.4-1 15.2-2.9 23.5-2.9 8.8-8.2 18.3-16 28.5L316.3 715.6v70.2h296.2z m-454.2 0V266H83.8L10 319.8V399l73.8-54.2v441h74.5zM10 10h1004v91.3H10zM10 922.7h1004v91.3H10z" p-id="11273"></path></svg>