<?xml version="1.0" standalone="no"?><!DOCTYPE svg PUBLIC "-//W3C//DTD SVG 1.1//EN" "http://www.w3.org/Graphics/SVG/1.1/DTD/svg11.dtd"><svg t="1625823180765" class="icon" viewBox="0 0 1193 1024" version="1.1" xmlns="http://www.w3.org/2000/svg" p-id="4025" xmlns:xlink="http://www.w3.org/1999/xlink" width="233.0078125" height="200"><defs><style type="text/css"></style></defs><path d="M828.76932 622.583329V421.918494c0-84.719931-373.432694 27.641977-438.78564 300.997753 0 0-86.339929 100.503918-97.43192 0 0 0 125.329897-551.915547 536.21756-551.915547V20.500823s48.80096-70.641942 146.23288 50.337959l195.03484 200.494835-341.26772 351.249712zM146.23288 421.918494a49.569959 49.569959 0 0 0-48.71596 50.165959v401.330671a49.483959 49.483959 0 0 0 48.71596 50.166958h828.76932a49.483959 49.483959 0 0 0 48.80196-50.166958v-50.079959a49.483959 49.483959 0 0 1 48.80096-50.166959 49.483959 49.483959 0 0 1 48.80096 50.165959v100.332917c-0.085 55.455955-43.766964 100.332918-97.60192 100.332918H97.51692C43.681964 1023.83 0 979.038037 0 923.582082V421.918494c0-55.456955 43.681964-100.418918 97.51692-100.418918h48.71596a49.483959 49.483959 0 0 1 48.80196 50.251959 49.483959 49.483959 0 0 1-48.80196 50.166959z" p-id="4026"></path></svg>