<?xml version="1.0" standalone="no"?><!DOCTYPE svg PUBLIC "-//W3C//DTD SVG 1.1//EN" "http://www.w3.org/Graphics/SVG/1.1/DTD/svg11.dtd"><svg t="1600013909120" class="icon" viewBox="0 0 1024 1024" version="1.1" xmlns="http://www.w3.org/2000/svg" p-id="8492" xmlns:xlink="http://www.w3.org/1999/xlink" width="48" height="48"><defs><style type="text/css"></style></defs><path d="M971.755102 937.691429H114.938776a20.897959 20.897959 0 0 1-20.89796-20.89796v-773.224489a20.897959 20.897959 0 0 1 41.795919 0v752.32653h835.918367a20.897959 20.897959 0 0 1 0 41.795919z" p-id="8493"></path><path d="M303.020408 864.548571h-20.897959a83.591837 83.591837 0 0 1-83.591837-83.591836v-250.775511a83.591837 83.591837 0 0 1 83.591837-83.591836h20.897959a83.591837 83.591837 0 0 1 83.591837 83.591836v250.775511a83.591837 83.591837 0 0 1-83.591837 83.591836z m-20.897959-376.163265a41.795918 41.795918 0 0 0-41.795918 41.795918v250.775511a41.795918 41.795918 0 0 0 41.795918 41.795918h20.897959a41.795918 41.795918 0 0 0 41.795919-41.795918v-250.775511a41.795918 41.795918 0 0 0-41.795919-41.795918zM553.795918 864.548571h-20.897959a83.591837 83.591837 0 0 1-83.591837-83.591836v-386.612245a83.591837 83.591837 0 0 1 83.591837-83.591837h20.897959a83.591837 83.591837 0 0 1 83.591837 83.591837v386.612245a83.591837 83.591837 0 0 1-83.591837 83.591836z m-20.897959-512a41.795918 41.795918 0 0 0-41.795918 41.795919v386.612245a41.795918 41.795918 0 0 0 41.795918 41.795918h20.897959a41.795918 41.795918 0 0 0 41.795919-41.795918v-386.612245a41.795918 41.795918 0 0 0-41.795919-41.795919zM804.571429 864.548571h-20.89796a83.591837 83.591837 0 0 1-83.591836-83.591836v-532.897959a83.591837 83.591837 0 0 1 83.591836-83.591837h20.89796a83.591837 83.591837 0 0 1 83.591836 83.591837v532.897959a83.591837 83.591837 0 0 1-83.591836 83.591836z m-20.89796-658.285714a41.795918 41.795918 0 0 0-41.795918 41.795919v532.897959a41.795918 41.795918 0 0 0 41.795918 41.795918h20.89796a41.795918 41.795918 0 0 0 41.795918-41.795918v-532.897959a41.795918 41.795918 0 0 0-41.795918-41.795919z" p-id="8494"></path><path d="M365.714286 571.977143H219.428571a20.897959 20.897959 0 0 1 0-41.795919h146.285715a20.897959 20.897959 0 0 1 0 41.795919zM616.489796 436.140408H470.204082a20.897959 20.897959 0 0 1 0-41.795918h146.285714a20.897959 20.897959 0 0 1 0 41.795918zM867.265306 289.854694H720.979592a20.897959 20.897959 0 0 1 0-41.795918h146.285714a20.897959 20.897959 0 0 1 0 41.795918zM177.632653 195.813878a20.897959 20.897959 0 0 1-15.36-6.687347L114.938776 137.717551l-47.333878 51.30449a20.897959 20.897959 0 1 1-30.72-28.316735l62.693878-67.918367a21.524898 21.524898 0 0 1 30.72 0l62.693877 67.918367A20.897959 20.897959 0 0 1 177.632653 195.813878z" p-id="8495"></path></svg>